<?xml version="1.0" standalone="no"?>
<!DOCTYPE svg PUBLIC "-//W3C//DTD SVG 20010904//EN"
 "http://www.w3.org/TR/2001/REC-SVG-20010904/DTD/svg10.dtd">
<svg version="1.0" xmlns="http://www.w3.org/2000/svg"
 width="300.000000pt" height="300.000000pt" viewBox="0 0 300.000000 300.000000"
 preserveAspectRatio="xMidYMid meet">
<metadata>
Created by potrace 1.10, written by Peter Selinger 2001-2011
</metadata>
<g transform="translate(0.000000,300.000000) scale(0.100000,-0.100000)"
fill="#000000" stroke="none">
<path d="M600 1965 l0 -135 -65 0 -65 0 0 -30 0 -30 65 0 65 0 0 30 c0 28 3
30 35 30 l35 0 0 135 0 135 -35 0 -35 0 0 -135z"/>
<path d="M800 1935 l0 -165 35 0 36 0 -7 65 -7 65 72 0 71 0 0 36 0 35 -67 -2
-68 -3 0 35 0 34 68 -3 67 -4 0 36 0 36 -100 0 -100 0 0 -165z m60 10 c10 -12
10 -18 0 -30 -19 -23 -30 -18 -30 15 0 33 11 38 30 15z"/>
<path d="M1130 1935 l0 -165 100 0 100 0 0 33 0 32 -65 -3 -65 -4 0 36 0 36
65 0 65 0 0 36 0 36 -65 -4 -65 -3 0 36 0 37 65 -6 65 -5 0 37 0 36 -100 0
-100 0 0 -165z m64 -13 c-20 -31 -44 -3 -29 35 5 15 7 15 23 0 13 -14 14 -21
6 -35z"/>
<path d="M1465 1935 l0 -165 98 0 97 0 0 33 0 32 -65 -3 -65 -4 0 136 0 136
-32 0 -33 0 0 -165z"/>
<path d="M1800 1935 l0 -165 30 0 30 0 0 165 0 165 -30 0 -30 0 0 -165z"/>
<path d="M1995 1935 l0 -165 33 0 32 0 0 65 0 65 70 0 71 0 -7 35 c-6 35 -6
35 30 35 33 0 36 2 36 30 0 28 -3 30 -36 30 -36 0 -36 0 -30 35 l7 35 -103 0
-103 0 0 -165z m153 95 c40 0 42 -1 42 -30 0 -29 -1 -30 -49 -30 -27 0 -56 -3
-65 -6 -13 -5 -16 2 -16 36 0 39 2 42 23 36 12 -3 41 -6 65 -6z m-94 -78 c15
-18 15 -20 -4 -37 -20 -18 -20 -18 -20 18 0 43 1 43 24 19z"/>
<path d="M2395 1935 l0 -165 100 0 100 0 0 30 0 30 -67 0 -68 0 0 35 0 35 68
0 68 0 -4 36 -4 36 -64 -4 -64 -4 0 36 0 37 66 -1 67 -1 1 33 1 32 -100 0
-100 0 0 -165z m65 0 c0 -7 -6 -18 -14 -24 -11 -9 -14 -7 -18 12 -7 35 1 50
18 36 8 -6 14 -17 14 -24z"/>
<path d="M400 1864 c0 -34 1 -35 33 -32 28 3 32 7 35 36 3 31 2 32 -32 32 -35
0 -36 -1 -36 -36z"/>
<path d="M800 1415 l0 -165 34 0 34 0 -5 100 -6 100 37 0 c35 0 36 -1 36 -35
0 -33 2 -35 35 -35 33 0 35 2 35 35 0 33 2 35 36 35 l35 0 -3 -100 -3 -100 33
0 32 0 0 165 0 165 -33 0 c-32 0 -33 -1 -29 -36 l4 -35 -36 6 c-36 7 -36 7
-36 -29 0 -34 -1 -36 -35 -36 -33 0 -35 2 -35 36 0 34 -1 35 -32 32 -32 -3
-33 -2 -30 30 2 30 0 32 -33 32 l-35 0 0 -165z m64 54 c-25 -28 -34 -23 -34
16 l0 35 25 -16 c24 -16 25 -18 9 -35z m236 16 c0 -33 -2 -35 -20 -25 -25 13
-25 29 -2 46 23 18 22 19 22 -21z"/>
<path d="M1330 1551 c0 -26 -4 -30 -31 -33 l-31 -3 -1 -133 -2 -132 33 0 32 0
0 68 0 67 68 0 67 -1 -2 -67 -1 -67 34 0 34 0 0 135 0 135 -36 0 c-35 0 -36 1
-32 30 l5 30 -69 0 -68 0 0 -29z m138 -68 l3 -33 -70 0 -71 0 0 35 0 36 68 -3
67 -3 3 -32z m32 -63 c0 -33 -11 -38 -30 -15 -10 12 -10 18 0 30 19 23 30 18
30 -15z m-171 7 c8 -11 6 -18 -8 -31 -21 -19 -32 -6 -23 27 5 20 16 22 31 4z"/>
<path d="M1660 1415 l0 -165 35 0 35 0 0 165 0 165 -35 0 -35 0 0 -165z"/>
<path d="M1860 1415 l0 -165 35 0 35 0 0 100 0 100 35 0 c33 0 35 -2 35 -35 0
-32 2 -35 30 -35 27 0 30 -3 30 -30 0 -28 3 -30 35 -30 33 0 35 -2 35 -35 0
-33 2 -35 33 -35 l32 0 0 165 0 165 -32 0 -33 0 0 -100 0 -100 -35 0 c-33 0
-35 2 -35 35 0 32 -2 35 -30 35 -28 0 -30 3 -30 36 0 36 0 37 -35 31 -34 -6
-35 -5 -35 29 0 32 -2 34 -35 34 l-35 0 0 -165z m69 82 c8 -11 7 -18 -7 -31
-22 -19 -32 -12 -32 21 0 25 21 31 39 10z m239 -141 c6 -27 -11 -38 -33 -22
-17 12 -17 16 -6 30 17 20 35 16 39 -8z"/>
<path d="M400 945 c0 -8 5 -15 10 -15 6 0 10 -5 10 -11 0 -5 -4 -7 -10 -4 -5
3 -10 1 -10 -4 0 -13 27 -15 34 -2 3 5 -1 14 -10 21 -12 11 -12 15 -2 21 10 7
9 9 -4 9 -10 0 -18 -7 -18 -15z"/>
<path d="M461 929 c0 -27 2 -30 8 -14 8 19 8 19 19 0 10 -18 11 -16 11 15 0
19 -3 29 -6 22 -4 -10 -8 -10 -19 -1 -12 9 -14 6 -13 -22z"/>
<path d="M541 937 c-14 -35 -14 -47 -1 -27 9 13 11 13 20 0 9 -13 10 -13 9 0
0 8 -4 24 -9 35 -7 19 -9 18 -19 -8z"/>
<path d="M601 928 c1 -18 3 -25 6 -15 4 17 6 17 17 2 10 -14 12 -13 11 12 0
18 -6 29 -17 31 -15 3 -18 -3 -17 -30z"/>
<path d="M807 953 c-4 -3 1 -15 10 -26 17 -20 17 -20 -2 -13 -16 6 -18 5 -7
-5 18 -19 40 4 23 25 -9 11 -9 15 1 19 9 4 8 6 -3 6 -9 1 -19 -2 -22 -6z"/>
<path d="M874 946 c-8 -22 3 -49 19 -43 6 2 12 14 12 27 0 27 -22 39 -31 16z"/>
<path d="M1000 946 c0 -25 12 -46 26 -46 9 0 14 11 13 33 l-1 32 -8 -30 -8
-30 -1 28 c-1 27 -21 40 -21 13z"/>
<path d="M1078 952 c7 -5 10 -16 7 -24 -4 -9 -2 -19 3 -22 5 -3 12 8 14 24 4
25 1 30 -16 30 -15 0 -17 -3 -8 -8z"/>
<path d="M1212 933 c4 -36 33 -39 33 -3 0 16 -6 26 -18 28 -15 3 -18 -2 -15
-25z"/>
<path d="M1277 940 c-3 -14 -2 -29 3 -34 7 -7 10 -5 10 5 0 12 2 12 10 -1 7
-11 10 -6 10 20 0 24 -3 31 -9 21 -7 -11 -9 -11 -13 0 -3 8 -7 3 -11 -11z"/>
<path d="M1345 950 c-3 -6 1 -13 9 -16 9 -3 16 -11 16 -16 0 -6 -8 -7 -17 -3
-15 5 -16 4 -5 -6 18 -19 40 4 23 25 -9 11 -9 15 1 19 9 4 7 6 -4 6 -9 1 -20
-4 -23 -9z"/>
<path d="M1481 928 c0 -18 3 -26 6 -18 3 8 11 18 17 22 7 5 6 8 -4 9 -10 0 -8
3 5 9 19 8 19 9 -2 9 -20 1 -23 -4 -22 -31z"/>
<path d="M1546 945 c-7 -20 3 -45 19 -45 7 0 15 7 19 15 7 20 -3 45 -19 45 -7
0 -15 -7 -19 -15z"/>
<path d="M1610 929 c0 -26 3 -29 14 -20 11 9 15 9 18 -1 3 -7 5 2 6 20 0 25
-3 32 -19 32 -15 0 -19 -7 -19 -31z"/>
<path d="M1751 930 c0 -31 1 -33 11 -15 11 19 11 19 19 0 6 -16 8 -13 8 14 1
28 -1 31 -13 22 -11 -9 -15 -9 -19 1 -3 7 -6 -3 -6 -22z"/>
<path d="M1816 945 c-7 -20 3 -45 19 -45 7 0 15 7 19 15 7 20 -3 45 -19 45 -7
0 -15 -7 -19 -15z"/>
<path d="M1880 930 c0 -25 4 -31 18 -28 11 2 17 12 17 28 0 16 -6 26 -17 28
-14 3 -18 -3 -18 -28z"/>
<path d="M1950 930 c0 -25 4 -30 23 -29 16 1 18 2 5 6 -21 5 -24 23 -5 23 8 0
8 3 -2 9 -11 7 -10 10 5 14 16 4 16 5 -3 6 -19 1 -23 -4 -23 -29z"/>
<path d="M2021 928 c1 -18 3 -25 6 -15 4 17 6 17 17 2 10 -14 12 -13 11 12 0
18 -6 29 -17 31 -15 3 -18 -3 -17 -30z"/>
<path d="M2090 930 c0 -26 3 -31 10 -20 7 11 10 11 10 2 0 -7 5 -10 10 -7 6 3
10 17 10 31 0 13 -4 24 -10 24 -5 0 -10 -6 -10 -12 0 -9 -4 -8 -10 2 -7 11
-10 6 -10 -20z"/>
<path d="M2220 930 c0 -25 4 -30 23 -30 20 1 20 2 4 11 -12 7 -16 17 -12 30 4
11 2 19 -4 19 -6 0 -11 -13 -11 -30z"/>
<path d="M2491 929 c1 -19 3 -26 6 -16 5 18 5 18 19 0 12 -16 13 -15 13 17 0
19 -3 29 -6 22 -4 -10 -8 -10 -19 -1 -12 9 -14 6 -13 -22z"/>
<path d="M2564 945 c-8 -20 3 -48 18 -43 16 6 23 28 8 28 -6 0 -8 -4 -5 -10 3
-5 1 -10 -4 -10 -6 0 -11 9 -11 21 0 15 5 19 15 15 8 -3 15 -1 15 4 0 16 -30
11 -36 -5z"/>
</g>
</svg>
