<?xml version="1.0" standalone="no"?>
<!DOCTYPE svg PUBLIC "-//W3C//DTD SVG 20010904//EN"
 "http://www.w3.org/TR/2001/REC-SVG-20010904/DTD/svg10.dtd">
<svg version="1.0" xmlns="http://www.w3.org/2000/svg"
 width="300.000000pt" height="300.000000pt" viewBox="0 0 300.000000 300.000000"
 preserveAspectRatio="xMidYMid meet">
<metadata>
Created by potrace 1.10, written by Peter Selinger 2001-2011
</metadata>
<g transform="translate(0.000000,300.000000) scale(0.100000,-0.100000)"
fill="#000000" stroke="none">
<path d="M1384 1894 c-71 -90 -130 -168 -132 -172 -1 -4 15 -6 35 -4 l38 5
-39 -47 c-21 -26 -36 -49 -34 -52 3 -2 123 -3 267 -2 l262 3 -35 42 c-20 22
-36 44 -36 48 0 4 16 5 35 2 19 -3 35 -4 35 -1 0 2 -60 80 -134 173 l-134 170
-128 -165z m246 -19 c90 -115 99 -130 80 -133 -12 -2 -23 -2 -24 0 -3 5 -158
202 -167 212 -4 4 -46 -42 -95 -103 -67 -86 -92 -111 -111 -111 -22 0 -16 10
53 98 134 169 147 183 154 175 4 -4 53 -66 110 -138z m18 -117 c14 -17 13 -18
-16 -18 -26 0 -38 9 -74 55 l-43 56 -20 -23 c-11 -13 -32 -38 -46 -57 -20 -25
-32 -32 -53 -29 -27 3 -27 4 45 95 l71 91 61 -76 c33 -42 67 -85 75 -94z
m-100 14 l25 -32 -63 0 -62 0 29 34 c15 19 32 33 37 32 5 -1 20 -16 34 -34z
m161 -92 l32 -40 -226 0 c-184 0 -224 2 -218 13 4 7 17 25 28 40 l20 26 166 1
166 0 32 -40z"/>
<path d="M520 1335 c0 -85 -2 -95 -21 -105 -15 -9 -24 -8 -35 1 -11 9 -18 8
-34 -6 -19 -17 -19 -20 -5 -34 25 -25 100 -21 127 7 20 20 23 34 26 127 l4
105 -31 0 -31 0 0 -95z"/>
<path d="M620 1305 l0 -125 30 0 c29 0 30 1 30 50 l0 50 61 0 c57 0 60 1 57
23 -3 20 -8 22 -60 20 l-58 -2 0 32 0 32 60 -3 c59 -4 60 -3 60 22 l0 26 -90
0 -90 0 0 -125z"/>
<path d="M835 1305 l0 -125 93 0 92 0 0 26 c0 27 0 27 -65 22 l-65 -6 0 32 0
32 60 -4 c59 -4 60 -4 60 22 0 25 -2 26 -61 26 -60 0 -60 0 -57 27 3 26 4 27
66 24 61 -2 62 -2 62 23 l0 26 -92 0 -93 0 0 -125z"/>
<path d="M1060 1305 l0 -125 85 0 c85 0 85 0 85 26 0 25 -2 25 -57 23 l-58 -3
3 102 4 102 -31 0 -31 0 0 -125z"/>
<path d="M1260 1305 l0 -125 30 0 30 0 0 125 0 125 -30 0 -30 0 0 -125z"/>
<path d="M1365 1305 l0 -125 30 0 c30 0 30 1 27 45 l-4 45 46 0 c58 0 96 32
96 80 0 19 -9 40 -25 55 -21 22 -33 25 -97 25 l-73 0 0 -125z m119 79 c19 -7
21 -45 4 -62 -7 -7 -25 -12 -40 -12 -26 0 -28 3 -28 40 0 36 3 40 24 40 13 0
31 -3 40 -6z"/>
<path d="M1590 1305 l0 -125 95 0 c93 0 95 0 91 23 -3 20 -9 22 -65 22 l-61 0
0 31 0 31 55 -5 c54 -4 55 -4 55 22 0 25 -2 26 -55 26 -53 0 -55 1 -55 28 0
27 0 27 60 24 59 -4 60 -3 60 22 l0 26 -90 0 -90 0 0 -125z"/>
<path d="M1880 1304 l0 -126 86 3 c82 4 87 5 114 36 37 41 46 89 26 136 -23
55 -66 77 -153 77 l-73 0 0 -126z m157 54 c26 -24 31 -74 10 -102 -8 -11 -33
-22 -60 -26 l-47 -7 0 79 0 78 37 0 c24 0 45 -8 60 -22z"/>
<path d="M2150 1305 l0 -125 95 0 95 0 0 26 c0 26 -1 26 -65 22 l-65 -4 0 31
c0 30 0 31 57 30 51 0 56 2 58 23 2 20 -2 22 -57 22 -57 0 -58 1 -58 28 0 27
1 27 62 27 56 0 61 2 63 23 2 21 -1 22 -92 22 l-93 0 0 -125z"/>
<path d="M2399 1305 c45 -122 47 -125 74 -123 26 3 32 12 76 126 l49 122 -32
0 c-31 0 -32 -2 -60 -85 -15 -47 -29 -85 -31 -85 -2 0 -16 38 -31 85 -27 83
-29 85 -59 85 l-32 0 46 -125z"/>
<path d="M440 990 c0 -37 2 -40 28 -39 23 2 24 2 5 6 -13 2 -23 8 -23 13 0 5
10 11 23 13 l22 4 -22 2 c-13 0 -23 7 -23 15 0 8 10 17 23 19 19 4 18 4 -5 6
-26 1 -28 -2 -28 -39z"/>
<path d="M522 990 c0 -39 1 -41 7 -15 6 28 7 29 19 10 12 -19 12 -19 26 -2 14
18 15 17 19 -10 3 -19 4 -14 5 17 1 42 0 44 -13 26 -8 -11 -15 -25 -15 -30 0
-6 -11 3 -25 19 l-24 30 1 -45z"/>
<path d="M638 990 c-2 -22 0 -40 4 -40 5 0 8 6 8 14 0 7 9 16 20 19 30 8 27
47 -4 47 -21 0 -24 -6 -28 -40z"/>
<path d="M731 1016 c-18 -21 -6 -62 18 -69 31 -8 53 15 49 48 -2 24 -9 31 -29
33 -14 2 -31 -4 -38 -12z m54 -26 c0 -18 -6 -26 -23 -28 -24 -4 -38 18 -28 44
3 9 15 14 28 12 17 -2 23 -10 23 -28z"/>
<path d="M832 998 c16 -50 26 -54 36 -17 l10 34 7 -32 c9 -39 20 -42 29 -9 3
13 8 32 11 43 3 10 -1 5 -9 -12 l-14 -30 -11 28 c-14 35 -18 34 -30 -5 l-9
-33 -7 33 c-4 17 -11 32 -16 32 -4 0 -3 -15 3 -32z"/>
<path d="M960 990 c0 -37 2 -40 28 -39 23 2 24 2 5 6 -28 5 -30 23 -3 23 11 0
20 4 20 9 0 5 -9 7 -20 4 -14 -4 -20 0 -20 10 0 9 10 18 23 20 19 4 18 4 -5 6
-26 1 -28 -2 -28 -39z"/>
<path d="M1040 991 c0 -23 4 -41 10 -41 5 0 7 7 4 15 -4 9 0 15 9 15 8 0 17
-7 21 -15 3 -8 10 -15 16 -15 7 0 8 5 3 13 -4 6 -8 23 -8 37 0 20 -6 26 -27
28 -27 3 -28 1 -28 -37z m50 14 c0 -8 -9 -15 -20 -15 -11 0 -20 7 -20 15 0 8
9 15 20 15 11 0 20 -7 20 -15z"/>
<path d="M1182 990 c1 -32 2 -37 5 -16 l5 29 23 -29 24 -29 -1 45 c-1 45 -1
45 -8 10 -4 -19 -8 -30 -9 -25 -1 6 -10 21 -21 35 l-20 25 2 -45z"/>
<path d="M1282 1018 c-31 -31 11 -88 50 -67 26 14 23 39 -4 38 -17 -1 -19 -2
-5 -6 26 -7 21 -23 -7 -23 -30 0 -40 13 -31 41 6 17 12 20 37 15 18 -3 27 -2
23 4 -9 14 -49 12 -63 -2z"/>
<path d="M1432 1023 c11 -3 18 -17 21 -41 l4 -37 1 37 c1 25 7 38 20 41 9 3
-1 5 -23 5 -22 0 -32 -2 -23 -5z"/>
<path d="M1520 990 c0 -37 2 -40 28 -39 23 2 24 2 5 6 -13 2 -23 8 -23 13 0 5
10 11 23 13 l22 4 -22 2 c-13 0 -23 7 -23 15 0 8 10 17 23 19 19 4 18 4 -5 6
-26 1 -28 -2 -28 -39z"/>
<path d="M1607 1023 c-4 -3 -7 -19 -7 -34 0 -31 23 -49 51 -42 28 8 23 19 -8
18 -23 0 -28 4 -28 25 0 21 5 25 27 25 14 -1 24 3 22 7 -6 10 -48 11 -57 1z"/>
<path d="M1703 990 c-1 -25 1 -37 4 -27 2 9 13 17 23 17 10 0 21 -8 23 -17 3
-10 5 2 4 27 0 25 -2 35 -4 23 -3 -14 -12 -23 -23 -23 -11 0 -20 9 -23 23 -2
12 -4 2 -4 -23z"/>
<path d="M1840 1011 c0 -11 9 -23 20 -26 27 -9 25 -25 -2 -25 -18 0 -20 -2 -9
-9 18 -12 41 -3 41 15 0 7 -9 18 -20 24 -11 6 -20 16 -20 22 0 5 9 8 20 5 11
-3 20 -1 20 4 0 5 -11 9 -25 9 -18 0 -25 -5 -25 -19z"/>
<path d="M1927 1023 c-15 -14 -7 -63 11 -72 39 -21 81 36 50 67 -13 13 -50 16
-61 5z m58 -23 c9 -27 -1 -40 -31 -40 -18 0 -24 5 -24 23 0 13 3 27 7 30 13
14 42 6 48 -13z"/>
<path d="M2032 993 c-2 -41 -1 -43 26 -42 22 1 23 2 5 6 -17 3 -23 13 -26 41
l-4 37 -1 -42z"/>
<path d="M2112 994 c-2 -46 14 -61 43 -40 12 8 15 22 12 46 l-4 35 -1 -37 c-2
-30 -6 -38 -21 -38 -15 0 -21 8 -24 38 l-4 37 -1 -41z"/>
<path d="M2208 1023 c6 -2 12 -20 12 -39 0 -19 5 -34 11 -34 7 0 10 14 7 35
-3 25 0 35 12 39 8 2 -1 4 -20 4 -19 0 -29 -2 -22 -5z"/>
<path d="M2338 1004 c-11 -23 -10 -29 11 -45 38 -31 84 8 61 52 -16 29 -58 25
-72 -7z m60 -16 c3 -24 0 -28 -21 -28 -27 0 -40 20 -30 46 10 26 48 13 51 -18z"/>
<path d="M2448 990 c-2 -22 0 -40 4 -40 5 0 8 12 8 26 l0 25 25 -28 24 -28 -1
45 c-1 38 -2 40 -5 12 l-4 -34 -24 31 -23 32 -4 -41z"/>
<path d="M2544 1018 c-4 -6 2 -19 14 -29 28 -22 28 -29 0 -29 -18 0 -20 -2 -9
-9 8 -5 20 -7 28 -4 20 8 16 41 -7 48 -11 3 -20 11 -20 17 0 6 9 8 20 5 11 -3
20 -1 20 4 0 13 -38 11 -46 -3z"/>
</g>
</svg>
